<mxfile host="app.diagrams.net" modified="2020-11-04T13:56:45.500Z" agent="5.0 (Windows NT 10.0; Win64; x64) AppleWebKit/537.36 (KHTML, like Gecko) Chrome/86.0.4240.111 Safari/537.36" etag="0puB8_SSyPC0qshaz6aR" version="13.8.9-1" type="github">
  <diagram id="8P5-qoddvgClMbcSEmlK" name="Page-1">
    <mxGraphModel dx="1422" dy="756" grid="1" gridSize="10" guides="1" tooltips="1" connect="1" arrows="1" fold="1" page="1" pageScale="1" pageWidth="850" pageHeight="1100" math="0" shadow="0">
      <root>
        <mxCell id="0" />
        <mxCell id="1" parent="0" />
        <mxCell id="N7NMArOQWSq2kBG0MsRB-6" style="edgeStyle=orthogonalEdgeStyle;rounded=0;orthogonalLoop=1;jettySize=auto;html=1;exitX=0.5;exitY=1;exitDx=0;exitDy=0;entryX=0;entryY=0.5;entryDx=0;entryDy=0;" edge="1" parent="1" source="N7NMArOQWSq2kBG0MsRB-2" target="N7NMArOQWSq2kBG0MsRB-4">
          <mxGeometry relative="1" as="geometry" />
        </mxCell>
        <mxCell id="N7NMArOQWSq2kBG0MsRB-2" value="" style="rounded=1;whiteSpace=wrap;html=1;" vertex="1" parent="1">
          <mxGeometry x="200" y="220" width="120" height="60" as="geometry" />
        </mxCell>
        <mxCell id="N7NMArOQWSq2kBG0MsRB-3" value="" style="rounded=1;whiteSpace=wrap;html=1;" vertex="1" parent="1">
          <mxGeometry x="440" y="220" width="120" height="60" as="geometry" />
        </mxCell>
        <mxCell id="N7NMArOQWSq2kBG0MsRB-7" style="edgeStyle=orthogonalEdgeStyle;rounded=0;orthogonalLoop=1;jettySize=auto;html=1;exitX=1;exitY=0.5;exitDx=0;exitDy=0;entryX=0.5;entryY=1;entryDx=0;entryDy=0;" edge="1" parent="1" source="N7NMArOQWSq2kBG0MsRB-4" target="N7NMArOQWSq2kBG0MsRB-3">
          <mxGeometry relative="1" as="geometry" />
        </mxCell>
        <mxCell id="N7NMArOQWSq2kBG0MsRB-4" value="" style="ellipse;whiteSpace=wrap;html=1;" vertex="1" parent="1">
          <mxGeometry x="320" y="360" width="120" height="80" as="geometry" />
        </mxCell>
        <mxCell id="N7NMArOQWSq2kBG0MsRB-5" value="" style="endArrow=classic;html=1;exitX=1;exitY=0.5;exitDx=0;exitDy=0;entryX=0;entryY=0.5;entryDx=0;entryDy=0;" edge="1" parent="1" source="N7NMArOQWSq2kBG0MsRB-2" target="N7NMArOQWSq2kBG0MsRB-3">
          <mxGeometry width="50" height="50" relative="1" as="geometry">
            <mxPoint x="590" y="420" as="sourcePoint" />
            <mxPoint x="640" y="370" as="targetPoint" />
          </mxGeometry>
        </mxCell>
      </root>
    </mxGraphModel>
  </diagram>
</mxfile>
